<svg width="18" height="31" viewBox="0 0 18 31" fill="none" xmlns="http://www.w3.org/2000/svg">
<path d="M6.44318 21.8182V21.6477C6.46212 19.839 6.65152 18.3996 7.01136 17.3295C7.37121 16.2595 7.88258 15.393 8.54545 14.7301C9.20833 14.0672 10.0038 13.4564 10.9318 12.8977C11.4905 12.5568 11.9924 12.1544 12.4375 11.6903C12.8826 11.2169 13.233 10.6723 13.4886 10.0568C13.7538 9.44129 13.8864 8.75947 13.8864 8.01136C13.8864 7.08333 13.6686 6.27841 13.233 5.59659C12.7973 4.91477 12.215 4.3892 11.4858 4.01989C10.7566 3.65057 9.94697 3.46591 9.05682 3.46591C8.2803 3.46591 7.5322 3.62689 6.8125 3.94886C6.0928 4.27083 5.49148 4.77746 5.00852 5.46875C4.52557 6.16004 4.24621 7.06439 4.17045 8.18182H0.590909C0.666667 6.57197 1.08333 5.19413 1.84091 4.0483C2.60795 2.90246 3.61648 2.02651 4.86648 1.42045C6.12595 0.814393 7.52273 0.511363 9.05682 0.511363C10.7235 0.511363 12.1723 0.842802 13.4034 1.50568C14.6439 2.16856 15.6004 3.07765 16.2727 4.23295C16.9545 5.38826 17.2955 6.70454 17.2955 8.18182C17.2955 9.22348 17.1345 10.1657 16.8125 11.0085C16.5 11.8513 16.0455 12.6042 15.4489 13.267C14.8617 13.9299 14.1515 14.517 13.3182 15.0284C12.4848 15.5492 11.8172 16.0985 11.3153 16.6761C10.8134 17.2443 10.4489 17.9214 10.2216 18.7074C9.99432 19.4934 9.87121 20.4735 9.85227 21.6477V21.8182H6.44318ZM8.26136 30.2273C7.56061 30.2273 6.95928 29.9763 6.45739 29.4744C5.95549 28.9725 5.70455 28.3712 5.70455 27.6705C5.70455 26.9697 5.95549 26.3684 6.45739 25.8665C6.95928 25.3646 7.56061 25.1136 8.26136 25.1136C8.96212 25.1136 9.56345 25.3646 10.0653 25.8665C10.5672 26.3684 10.8182 26.9697 10.8182 27.6705C10.8182 28.1345 10.6998 28.5606 10.4631 28.9489C10.2358 29.3371 9.92803 29.6496 9.53977 29.8864C9.16098 30.1136 8.73485 30.2273 8.26136 30.2273Z" fill="#757575"/>
</svg>
